<svg xmlns="http://www.w3.org/2000/svg" viewBox="0 0 576 512">
  <path fill="#7C3AED" d="M547.6 103.8L490.3 13.1C485.2 5 476.1 0 466.4 0H109.6C99.9 0 90.8 5 85.7 13.1L28.3 103.8c-29.6 46.8-3.4 111.9 51.9 119.8c4 .6 8.1 .9 12.1 .9c19.6 0 38.2-7.3 52.6-20.3c14.4 13 33 20.3 52.6 20.3c19.6 0 38.2-7.3 52.6-20.3c14.4 13 33 20.3 52.6 20.3c19.6 0 38.2-7.3 52.6-20.3c14.4 13 33 20.3 52.6 20.3c19.6 0 38.2-7.3 52.6-20.3c14.4 13 33 20.3 52.6 20.3c4 0 8.1-.3 12.1-.9c55.3-7.9 81.5-73 51.9-119.8zM48 256c-13.3 0-24 10.7-24 24v184c0 26.5 21.5 48 48 48H224V288c0-17.7 14.3-32 32-32s32 14.3 32 32V512H504c26.5 0 48-21.5 48-48V280c0-13.3-10.7-24-24-24s-24 10.7-24 24V464H336V288c0-53-43-96-96-96s-96 43-96 96V464H96V280c0-13.3-10.7-24-24-24z"/>
</svg>
